<?xml version="1.0" encoding="utf-8"?>
<!-- Generator: Adobe Illustrator 19.1.0, SVG Export Plug-In . SVG Version: 6.00 Build 0)  -->
<svg version="1.1" xmlns="http://www.w3.org/2000/svg" xmlns:xlink="http://www.w3.org/1999/xlink" x="0px" y="0px"
	 viewBox="0 0 612 792" style="enable-background:new 0 0 612 792;" xml:space="preserve">
<style type="text/css">
	.st0{display:none;}
	.st1{font-family:'BradleyHandITC';}
	.st2{font-size:36px;}
	.st3{fill:none;}
	.st4{font-family:'OratorStd';}
	.st5{fill:none;stroke:#000000;stroke-width:0.5;stroke-miterlimit:10;}
</style>
<g id="Layer_1">
	<text transform="matrix(1 0 0 1 176.9414 320.7061)" class="st0 st1 st2">PROJECT IMP</text>
	<rect x="387.3" y="283.3" class="st3" width="162" height="65.7"/>
	<g class="st0">
	</g>
	<rect x="152" y="432.7" class="st3" width="240.3" height="31"/>
	<text transform="matrix(1 0 0 1 151.9997 451.4225)" class="st4 st2">Project Imp</text>
	<g>
		<path class="st5" d="M398.8,448.3l-4.1,12.3l-5.2-1l13.3-37.1h6.3l13.3,37.1l-5.2,1l-4.1-12.3H398.8z M406.1,427.5h-0.2l-5.8,17.5
			h11.8L406.1,427.5z"/>
		<path class="st5" d="M459,454.2c-3.1,3.5-7.7,6.1-13.6,6.1c-13.7,0-15.8-11.8-15.8-19.2c0-7.4,2.1-19.2,15.8-19.2
			c6,0,10.1,2.5,12.9,6l-4.5,1.9c-1.7-2.4-4.3-4.4-8.4-4.4c-9.6,0-10.3,10.8-10.3,15.7c0,4.9,0.6,15.6,10.3,15.6
			c4.1,0,7.3-2.4,9.3-4.7L459,454.2z"/>
		<path class="st5" d="M480,425.9h-11.4v-3.4h27.8v3.4h-11.1v34H480V425.9z"/>
	</g>
</g>
<g id="Layer_2">
	<line class="st5" x1="402.8" y1="422.5" x2="405.9" y2="427.5"/>
	<line class="st5" x1="405.9" y1="427.5" x2="398.6" y2="434.2"/>
	<line class="st5" x1="398.6" y1="434.4" x2="401.7" y2="440"/>
	<line class="st5" x1="406.1" y1="427.5" x2="409.1" y2="422.5"/>
	<line class="st5" x1="409.1" y1="422.5" x2="409.7" y2="438.2"/>
	<line class="st5" x1="401.7" y1="440" x2="392.8" y2="450.4"/>
	<line class="st5" x1="392.8" y1="450.4" x2="394.8" y2="460.3"/>
	<line class="st5" x1="396.6" y1="446" x2="394.8" y2="460.3"/>
	<line class="st5" x1="396.6" y1="446" x2="400.1" y2="444.9"/>
	<line class="st5" x1="396.6" y1="446" x2="398.8" y2="448.3"/>
	<line class="st5" x1="400.1" y1="444.9" x2="398.8" y2="448.5"/>
	<line class="st5" x1="400.1" y1="444.9" x2="409.1" y2="448.3"/>
	<line class="st5" x1="409.1" y1="448.3" x2="411.9" y2="445.2"/>
	<line class="st5" x1="411.9" y1="445.2" x2="418.4" y2="448.2"/>
	<line class="st5" x1="413.2" y1="448.3" x2="418.2" y2="448.3"/>
	<line class="st5" x1="412.2" y1="444.9" x2="413.6" y2="434.8"/>
	<line class="st5" x1="409.7" y1="438.2" x2="413.6" y2="434.8"/>
	<line class="st5" x1="412.2" y1="444.9" x2="412.2" y2="445.2"/>
	<line class="st5" x1="413.2" y1="448.5" x2="422.5" y2="459.6"/>
	<line class="st5" x1="417.9" y1="448.3" x2="418.4" y2="448.2"/>
	<line class="st5" x1="453.7" y1="429.9" x2="450.4" y2="422.7"/>
	<path class="st5" d="M440,427.7"/>
	<path class="st5" d="M450.4,423.4"/>
	<line class="st5" x1="440" y1="427" x2="436.3" y2="424.4"/>
	<line class="st5" x1="436.3" y1="424.4" x2="447.8" y2="423.9"/>
	<line class="st5" x1="429.8" y1="437.6" x2="439.8" y2="426.9"/>
	<line class="st5" x1="429.8" y1="437.6" x2="435.1" y2="442.4"/>
	<line class="st5" x1="446.5" y1="456.8" x2="458.9" y2="454.4"/>
	<line class="st5" x1="449" y1="456.3" x2="447.2" y2="460.3"/>
	<line class="st5" x1="438.7" y1="459.2" x2="448.9" y2="456.5"/>
	<line class="st5" x1="438.7" y1="459.2" x2="440.9" y2="455.8"/>
	<line class="st5" x1="433" y1="454.6" x2="440.9" y2="455.8"/>
	<line class="st5" x1="433" y1="454.6" x2="435.5" y2="446.8"/>
	<line class="st5" x1="429.8" y1="437.6" x2="435.5" y2="446.8"/>
	<line class="st5" x1="444.3" y1="425.6" x2="450.4" y2="422.7"/>
	<line class="st5" x1="468.6" y1="422.5" x2="475.6" y2="425.9"/>
	<line class="st5" x1="475.6" y1="425.9" x2="487.9" y2="422.7"/>
	<line class="st5" x1="487.9" y1="422.7" x2="490.6" y2="425.9"/>
	<line class="st5" x1="490.6" y1="425.9" x2="496.4" y2="422.5"/>
	<line class="st5" x1="480.2" y1="425.9" x2="485.3" y2="425.9"/>
	<line class="st5" x1="472.6" y1="424.2" x2="487.5" y2="422.7"/>
	<line class="st5" x1="472.6" y1="424.2" x2="472.3" y2="424.3"/>
	<line class="st5" x1="480" y1="426.1" x2="485.3" y2="431"/>
	<line class="st5" x1="485.3" y1="431" x2="480" y2="442.8"/>
	<line class="st5" x1="480" y1="442.8" x2="485.3" y2="459.8"/>
	<line class="st5" x1="483.2" y1="435.5" x2="485.3" y2="459.8"/>
</g>
</svg>
